<svg xmlns="http://www.w3.org/2000/svg" viewBox="0 0 600 600" fill="none">
  <rect width="600" height="600" fill="#f5f5f5"/>
  <g fill="#d4d4d4">
    <!-- Frame - landscape -->
    <rect x="225" y="215" width="150" height="3"/>
    <rect x="222" y="218" width="3" height="90"/>
    <rect x="375" y="218" width="3" height="90"/>
    <rect x="225" y="308" width="150" height="3"/>

    <!-- Sun - bigger -->
    <rect x="349" y="224" width="4" height="4"/>
    <rect x="353" y="220" width="4" height="4"/>
    <rect x="357" y="220" width="4" height="4"/>
    <rect x="361" y="224" width="4" height="4"/>
    <rect x="361" y="228" width="4" height="4"/>
    <rect x="357" y="232" width="4" height="4"/>
    <rect x="353" y="232" width="4" height="4"/>
    <rect x="349" y="228" width="4" height="4"/>
    <rect x="353" y="224" width="8" height="8"/>

    <!-- Mountain - bigger -->
    <rect x="326" y="248" width="8" height="4"/>
    <rect x="322" y="252" width="4" height="4"/><rect x="334" y="252" width="4" height="4"/>
    <rect x="318" y="256" width="4" height="4"/><rect x="338" y="256" width="4" height="4"/>
    <rect x="314" y="260" width="4" height="4"/><rect x="342" y="260" width="4" height="4"/>
    <rect x="310" y="264" width="4" height="4"/><rect x="346" y="264" width="4" height="4"/>
    <rect x="306" y="268" width="4" height="4"/><rect x="350" y="268" width="4" height="4"/>
    <rect x="302" y="272" width="4" height="4"/><rect x="354" y="272" width="4" height="4"/>
    <rect x="298" y="276" width="4" height="4"/><rect x="358" y="276" width="4" height="4"/>
    <rect x="294" y="280" width="4" height="4"/><rect x="362" y="280" width="4" height="4"/>
    <!-- Snow -->
    <rect x="326" y="252" width="8" height="4"/>
    <rect x="322" y="256" width="16" height="4"/>

    <!-- Small mountain - bigger -->
    <rect x="262" y="268" width="8" height="4"/>
    <rect x="258" y="272" width="4" height="4"/><rect x="270" y="272" width="4" height="4"/>
    <rect x="254" y="276" width="4" height="4"/><rect x="274" y="276" width="4" height="4"/>
    <rect x="250" y="280" width="4" height="4"/><rect x="278" y="280" width="4" height="4"/>

    <!-- Ground -->
    <rect x="225" y="284" width="150" height="3"/>

    <!-- Nitro text inside frame -->
    <rect x="272" y="294" width="3" height="12"/>
    <rect x="275" y="297" width="3" height="3"/>
    <rect x="278" y="300" width="3" height="3"/>
    <rect x="281" y="294" width="3" height="12"/>
    <rect x="287" y="292" width="3" height="3"/>
    <rect x="287" y="297" width="3" height="9"/>
    <rect x="296" y="294" width="3" height="12"/>
    <rect x="293" y="297" width="9" height="3"/>
    <rect x="305" y="297" width="3" height="9"/>
    <rect x="308" y="297" width="3" height="3"/>
    <rect x="311" y="294" width="3" height="3"/>
    <rect x="320" y="297" width="6" height="3"/>
    <rect x="317" y="300" width="3" height="6"/>
    <rect x="326" y="300" width="3" height="6"/>
    <rect x="320" y="306" width="6" height="3"/>
  </g>

  <text x="300" y="355" text-anchor="middle" font-family="-apple-system, BlinkMacSystemFont, 'Segoe UI', Roboto, sans-serif" font-size="24" font-weight="500" fill="#c4c4c4">No image</text>
</svg>
